<svg width="19" height="20" viewBox="0 0 19 20" fill="none" xmlns="http://www.w3.org/2000/svg">
<path d="M0.857489 9.37776C1.02831 8.67776 1.14119 7.96576 1.37894 7.29376C1.85646 5.68699 2.77758 4.2479 4.03625 3.14218C5.29492 2.03646 6.83996 1.30906 8.49346 1.04376C8.81298 1.00264 9.1344 0.977954 9.45645 0.969771C9.56025 3.01345 9.30325 5.05943 8.69725 7.01376C7.87411 9.08576 6.12795 9.79976 4.10208 10.0068C3.02521 10.1168 1.93735 10.1158 0.854492 10.1658L0.857489 9.37776Z" fill="white"/>
<path d="M0.857422 10.8198C2.50294 10.6961 4.15753 10.8495 5.75234 11.2738C6.6264 11.5033 7.40995 11.9937 7.99882 12.6798C8.58768 13.3659 8.95395 14.2152 9.04892 15.1148C9.29467 16.7248 9.32863 18.3698 9.4585 19.9998H8.67631C8.60595 19.9534 8.52967 19.9167 8.44954 19.8908C6.83232 19.6233 5.32044 18.9136 4.08093 17.8399C2.84142 16.7662 1.92255 15.3704 1.42583 13.8068C1.19512 13.0847 1.00534 12.3502 0.857422 11.6068L0.857422 10.8198Z" fill="white"/>
<path d="M9.98047 19.9998C10.0684 18.6078 10.0944 17.2088 10.2562 15.8258C10.5878 12.9818 11.9544 11.5158 14.7515 11.0378C15.9802 10.8278 17.2408 10.8158 18.6354 10.7008C18.5641 11.3847 18.4584 12.0645 18.3187 12.7378C17.3018 16.5998 14.9712 19.0998 10.9874 19.8908C10.9082 19.9174 10.8326 19.954 10.7626 19.9998L9.98047 19.9998Z" fill="white"/>
<path d="M18.5459 10.1628C16.927 10.2353 15.306 10.0743 13.7329 9.68479C12.9399 9.4998 12.2168 9.09028 11.65 8.50513C11.0832 7.91998 10.6965 7.18392 10.5362 6.38479C10.1716 4.64779 10.0597 2.85778 9.83691 1.10578C13.8178 0.311779 18.6568 5.43278 18.5419 10.1678" fill="white"/>
</svg>
