<svg width="21" height="22" viewBox="0 0 21 22" fill="none" xmlns="http://www.w3.org/2000/svg">
<mask id="mask0_867_2671" style="mask-type:luminance" maskUnits="userSpaceOnUse" x="0" y="0" width="21" height="22">
<path d="M20.933 0H0V22H20.933V0Z" fill="white"/>
</mask>
<g mask="url(#mask0_867_2671)">
<path d="M5.7186 9.71496L5.6906 9.67396C5.6676 9.64096 5.6446 9.60796 5.6236 9.57396C5.6146 9.55896 5.6066 9.54296 5.5976 9.52796L5.5726 9.48096C5.1873 11.1184 5.33912 12.8364 6.0056 14.381L6.0376 14.36L6.0686 14.339L6.1416 14.29L6.1536 14.308C6.1826 14.353 6.2126 14.397 6.2426 14.441C6.2726 14.485 6.3056 14.534 6.3376 14.58C5.64668 13.072 5.44054 11.3869 5.7476 9.75696L5.7196 9.71596" fill="white"/>
<path d="M8.30119 5.264L8.41919 5.236L8.46719 5.226L8.51519 5.216C9.39641 3.6021 9.94778 1.82903 10.1372 0H10.0612H9.96919H9.89319C9.69661 1.85931 9.12039 3.65845 8.2002 5.286L8.25119 5.273L8.30019 5.26" fill="white"/>
<path d="M7.37467 11.0541L7.33767 11.034L7.30067 11.0131C7.27067 10.9981 7.24267 10.981 7.21267 10.965L7.17567 10.945L7.13867 10.925C7.20832 12.6624 7.71902 14.3535 8.62267 15.8391C8.73967 16.0521 8.86367 16.265 8.99267 16.48L9.04267 16.4921L9.09267 16.5041L9.21367 16.529L9.26267 16.537L9.31167 16.5451C9.14167 16.2701 8.98067 15.995 8.83167 15.723C7.96911 14.31 7.46864 12.7069 7.37467 11.0541Z" fill="white"/>
<path d="M7.78522 8.51698L7.81223 8.54398L7.83923 8.57098C7.86123 8.58998 7.88523 8.60898 7.90823 8.62798L7.93723 8.65098L7.96622 8.67398C8.13762 8.38057 8.34341 8.10864 8.57922 7.86398C9.30131 7.12172 9.94288 6.30518 10.4932 5.42798H10.4522H10.4112C10.3762 5.42798 10.3402 5.42798 10.3052 5.42798H10.2612H10.2182C9.69185 6.24348 9.0848 7.00397 8.40622 7.69798C8.16805 7.94625 7.95872 8.22066 7.78223 8.51598" fill="white"/>
<path d="M10.5264 5.04707H10.6264H10.6684H10.7104C11.5657 3.56854 12.085 1.91986 12.2314 0.218072L12.1954 0.210072L12.1574 0.202072L12.0664 0.183072H12.0314L11.9914 0.174072C11.8477 1.8938 11.3176 3.55888 10.4404 5.04507H10.5264" fill="white"/>
<path d="M11.0547 16.504L11.0917 16.495L11.1307 16.486L11.2227 16.464L11.2607 16.455L11.2977 16.444C10.9365 15.9059 10.6056 15.348 10.3067 14.773C9.81956 13.8632 9.47104 12.8857 9.2727 11.873L9.2327 11.857L9.1927 11.841L9.0927 11.803L9.0527 11.788L9.0127 11.772C9.20234 12.8611 9.56706 13.9124 10.0927 14.885C10.383 15.443 10.7035 15.9848 11.0527 16.508" fill="white"/>
<path d="M12.452 5.35903L12.545 5.38603L12.582 5.39803L12.619 5.41003C13.5487 4.05516 14.1302 2.49209 14.312 0.859033L14.275 0.843033L14.238 0.827033L14.147 0.791033L14.11 0.777033L14.074 0.759033C13.901 2.40239 13.3163 3.97557 12.374 5.33303L12.412 5.34403L12.45 5.35503" fill="white"/>
<path d="M12.1094 5.98788L12.0324 5.93788L11.9994 5.91988L11.9664 5.90088C11.4623 6.55007 10.9025 7.15402 10.2934 7.70588C9.79604 8.15258 9.41797 8.71625 9.19336 9.34588L9.22736 9.36088L9.26136 9.37588L9.34036 9.41088L9.37436 9.42588L9.40836 9.44088C9.61904 8.84184 9.97743 8.30564 10.4504 7.88188C11.0757 7.31558 11.6503 6.69554 12.1674 6.02888L12.1364 6.00888L12.1054 5.98888" fill="white"/>
<path d="M13.9695 6.064L13.9995 6.087L14.0724 6.142L14.1024 6.165L14.1325 6.188C15.2211 4.99527 15.9753 3.536 16.3185 1.958L16.2835 1.934L16.2495 1.909L16.1645 1.849L16.1294 1.825L16.0945 1.802C15.7725 3.38413 15.0278 4.84941 13.9395 6.042L13.9695 6.064Z" fill="white"/>
<path d="M12.5846 15.7111L12.6116 15.6851L12.6386 15.6591C12.6606 15.6351 12.6786 15.6101 12.6986 15.5851L12.7226 15.5551L12.7466 15.5251C12.4188 15.0183 12.1216 14.4923 11.8566 13.9501C11.6621 13.5489 11.4934 13.1357 11.3516 12.7131L11.3056 12.6921L11.2596 12.6711L11.1496 12.6211L11.1036 12.6011L11.0576 12.5811C11.2148 13.0862 11.4104 13.5787 11.6426 14.0541C11.9222 14.6259 12.2368 15.18 12.5846 15.7131" fill="white"/>
<path d="M10.8514 10.0139L10.8874 10.0279L10.9734 10.0599L11.0094 10.0739L11.0454 10.0879C11.1746 9.22054 11.6339 8.43662 12.3274 7.89991C12.6754 7.62091 12.9934 7.34091 13.2914 7.05891L13.2674 7.03091L13.2424 7.00291L13.1834 6.93491L13.1594 6.90691L13.1344 6.87891C12.8394 7.15891 12.5234 7.43791 12.1784 7.71491C11.4518 8.27791 10.9649 9.09488 10.8154 10.0019L10.8514 10.0139Z" fill="white"/>
<path d="M14.0636 7.72211C13.5758 8.04825 13.1813 8.49589 12.9192 9.0209C12.657 9.54592 12.5362 10.1302 12.5686 10.7161L12.6066 10.7331L12.6436 10.7501L12.7356 10.7921L12.7736 10.8101L12.8116 10.8281C12.7632 10.2632 12.8664 9.69558 13.1105 9.18386C13.3547 8.67213 13.731 8.23484 14.2006 7.91711C15.8909 6.83542 17.2351 5.29128 18.0736 3.46811L18.0436 3.43711L18.0136 3.40611L17.9406 3.32911L17.9106 3.29711L17.8806 3.26611C17.077 5.09656 15.7492 6.64736 14.0636 7.72211Z" fill="white"/>
<path d="M16.0732 7.93399C17.3292 7.20037 18.4407 6.2437 19.3532 5.11099L19.3312 5.07599L19.3092 5.04099C19.2902 5.01199 19.2742 4.98299 19.2552 4.95399L19.2312 4.91999L19.2072 4.88599C18.3109 6.03369 17.2033 6.99937 15.9442 7.73099C14.3872 8.69099 13.9812 10.299 14.7572 12.393C14.8817 12.5965 14.9738 12.8182 15.0302 13.05C15.9553 14.8656 17.1623 16.5231 18.6062 17.961L18.6292 17.931L18.6522 17.902L18.7262 17.802L18.7482 17.774L18.7702 17.746C17.2617 16.268 16.0222 14.5384 15.1072 12.635C14.1972 10.468 14.5202 8.88499 16.0682 7.93499" fill="white"/>
<path d="M1.084 7.78607C2.02797 6.04457 2.77748 4.2045 3.319 2.29907L3.27 2.33707L3.22 2.37507C3.184 2.40407 3.146 2.43107 3.11 2.46007L3.058 2.50307L3.006 2.54807C2.47513 4.3253 1.76096 6.04253 0.874995 7.67207C-0.677005 10.5341 -0.141005 14.5311 2.315 18.8641L2.407 18.9511L2.5 19.0401C2.577 19.1131 2.654 19.1851 2.733 19.2551L2.821 19.3301L2.909 19.4061C0.164995 14.8921 -0.506005 10.7181 1.084 7.78607Z" fill="white"/>
<path d="M2.95766 7.80591C4.31129 5.67924 5.26936 3.3254 5.78566 0.85791L5.74366 0.87591L5.70166 0.89391L5.60166 0.93891L5.55966 0.95691L5.51766 0.97491C5.00002 3.35322 4.06634 5.6214 2.75966 7.67491C0.959661 10.5209 1.67966 14.8309 4.74166 19.4999C5.12966 20.0919 5.55566 20.6829 6.00966 21.2669L6.07566 21.2919L6.14366 21.3179C6.19766 21.3379 6.25066 21.3589 6.30466 21.3789L6.37266 21.4049L6.43566 21.4279C5.89566 20.7499 5.39466 20.0609 4.94166 19.3709C1.93366 14.7829 1.21166 10.5709 2.96166 7.80391" fill="white"/>
<path d="M4.83282 7.82592C6.5061 5.58224 7.59792 2.95922 8.01082 0.190918L7.97082 0.197918L7.93182 0.204918L7.83182 0.225918L7.79282 0.234918L7.75382 0.243918C7.33745 2.94188 6.26696 5.49691 4.63582 7.68592C2.82482 10.1599 3.28582 13.8789 5.93582 18.1569C6.77952 19.5043 7.73452 20.7788 8.79082 21.9669L8.84582 21.9739L8.90082 21.9809L9.03382 21.9949H9.08682H9.13982C8.02582 20.7617 7.02199 19.4333 6.13982 18.0249C3.54582 13.8349 3.08082 10.2109 4.83082 7.82492" fill="white"/>
<path d="M7.30273 16.572L7.24973 16.5539L7.20273 16.5359C7.16173 16.5219 7.11873 16.509 7.07773 16.493L7.02373 16.4709L6.96973 16.45C7.05673 16.609 7.14673 16.7699 7.24073 16.9309C8.33828 18.7611 9.64397 20.458 11.1317 21.988L11.1777 21.9799L11.2337 21.9729L11.3267 21.962L11.3767 21.9559L11.4357 21.949C9.90591 20.398 8.5634 18.6729 7.43573 16.809C7.38873 16.729 7.34473 16.65 7.29973 16.571" fill="white"/>
<path d="M9.54492 16.9831H9.49892L9.38692 16.9761H9.34092H9.29492C10.3909 18.653 11.6591 20.2108 13.0789 21.6241L13.1199 21.6131L13.1609 21.6021L13.2609 21.5721L13.3009 21.5591L13.3409 21.5461C11.9398 20.1606 10.6843 18.6353 9.59392 16.9941H9.54792" fill="white"/>
<path d="M11.5531 16.8791L11.5131 16.8851L11.4131 16.8991L11.3711 16.9051L11.3311 16.9111C12.3602 18.3651 13.519 19.723 14.7931 20.9681L14.8271 20.9511L14.8631 20.9331L14.9441 20.8931L14.9771 20.8771L15.0101 20.8601C13.7542 19.635 12.61 18.3004 11.5911 16.8721L11.5511 16.8791" fill="white"/>
<path d="M13.2524 16.3429L13.2184 16.3579C13.1914 16.3709 13.1624 16.3829 13.1344 16.3949L13.1004 16.4099L13.0664 16.4249C14.019 17.7492 15.0828 18.9897 16.2464 20.1329L16.2774 20.1119L16.3084 20.0909L16.3834 20.0379L16.4144 20.0169L16.4454 19.9959C15.291 18.8642 14.2349 17.6365 13.2884 16.3259L13.2554 16.3429" fill="white"/>
<path d="M14.593 15.3091L14.569 15.3401C14.55 15.3651 14.53 15.3891 14.51 15.4141L14.485 15.4431L14.46 15.4721C15.3655 16.7788 16.3881 18.0005 17.515 19.1221L17.542 19.0971L17.569 19.0711L17.634 19.0091L17.661 18.9831L17.688 18.9581C16.5524 17.8293 15.5243 16.5973 14.617 15.2781L14.593 15.3091Z" fill="white"/>
<path d="M17.9461 7.95107C18.7109 7.54622 19.4387 7.07508 20.1211 6.54307L20.1061 6.50807L20.0911 6.47307C20.0781 6.44507 20.0671 6.41607 20.0541 6.38807L20.0381 6.35407L20.0211 6.32007C19.3361 6.85874 18.6038 7.33434 17.8331 7.74107C16.2091 8.61507 15.7751 10.1611 16.5781 12.2131C17.3076 13.8413 18.3119 15.3317 19.5471 16.6191C19.5531 16.6081 19.5591 16.5961 19.5661 16.5851C19.5731 16.5741 19.5781 16.5621 19.5851 16.5511L19.6311 16.4681L19.6501 16.4341L19.6691 16.4001C18.4765 15.1491 17.5062 13.7036 16.8001 12.1261C16.0371 10.1761 16.4231 8.77107 17.9461 7.95107Z" fill="white"/>
<path d="M19.8205 7.96803C20.0675 7.85203 20.3035 7.73403 20.5325 7.61503L20.5215 7.57903L20.5095 7.54303C20.4995 7.51403 20.4915 7.48503 20.4815 7.45603L20.4705 7.42003C20.4705 7.40803 20.4635 7.39603 20.4585 7.38403C20.2215 7.50803 19.9775 7.63103 19.7205 7.75103C18.1045 8.50603 17.6105 9.89603 18.2915 11.771C18.7809 12.9689 19.4596 14.0804 20.3015 15.063L20.3165 15.023L20.3315 14.983L20.3675 14.883L20.3825 14.843L20.3975 14.803C19.6083 13.8691 18.9715 12.8165 18.5105 11.684C17.8685 9.91903 18.3105 8.66603 19.8165 7.96103" fill="white"/>
<path d="M20.2456 11.3169C20.0197 10.8551 19.9498 10.3325 20.0465 9.82753C20.1431 9.3226 20.4011 8.86269 20.7816 8.51694C20.7816 8.50294 20.7756 8.48994 20.7726 8.47594C20.7696 8.46194 20.7666 8.44894 20.7636 8.43494C20.7566 8.40394 20.7486 8.37394 20.7406 8.34294L20.7296 8.30294C20.7296 8.28994 20.7226 8.27694 20.7186 8.26294C20.2662 8.63032 19.951 9.13956 19.824 9.7083C19.697 10.277 19.7655 10.872 20.0186 11.3969C20.2347 11.999 20.5213 12.5733 20.8726 13.1079C20.8726 13.0899 20.8786 13.0719 20.8816 13.0539C20.8846 13.0359 20.8876 13.0179 20.8906 12.9999C20.8986 12.9549 20.9056 12.9099 20.9136 12.8649L20.9226 12.8099C20.9226 12.7919 20.9286 12.7729 20.9316 12.7539C20.6523 12.3017 20.422 11.821 20.2446 11.3199" fill="white"/>
<path d="M15.0342 13.0509C14.9777 12.8191 14.8856 12.5975 14.7612 12.3939C14.682 12.2656 14.5913 12.1448 14.4902 12.0329C14.0622 11.5623 13.5466 11.1795 12.9722 10.9059L12.8112 10.8289L12.7732 10.8109L12.7352 10.7929L12.6432 10.7509L12.6052 10.7339L12.5672 10.7169C12.1325 10.5203 11.6245 10.3109 11.0432 10.0889L11.0072 10.0749L10.9712 10.0609L10.8852 10.0289L10.8492 10.0149L10.8132 10.0019L10.6472 9.93995C10.1832 9.76595 9.77221 9.59995 9.40921 9.43995L9.37521 9.42494L9.34121 9.40994L9.26221 9.37494L9.22821 9.35994L9.19421 9.34394C8.85297 9.19362 8.52104 9.02298 8.20021 8.83294C8.11973 8.78347 8.04195 8.72972 7.96721 8.67194L7.93821 8.64894L7.90921 8.62594C7.88621 8.60694 7.86121 8.58794 7.84021 8.56894L7.81321 8.54194L7.78621 8.51494C7.53493 8.28673 7.37592 7.9744 7.33921 7.63694C7.31618 7.41694 7.33175 7.1946 7.38521 6.97994C7.39421 6.94394 7.40721 6.90894 7.41821 6.87394C7.42921 6.83894 7.44321 6.79194 7.46021 6.75194C7.55133 6.5397 7.68276 6.34714 7.84721 6.18494C7.88121 6.15094 7.91821 6.11794 7.95521 6.08494C7.97221 6.06994 7.98721 6.05394 8.00521 6.03894C8.02321 6.02394 8.03621 6.01695 8.05021 6.00595C8.66761 5.57206 9.41397 5.36053 10.1672 5.40594H10.2192H10.2622H10.3062C10.3412 5.40594 10.3772 5.40594 10.4122 5.40594H10.4532H10.4942C11.0141 5.45365 11.5168 5.61624 11.9662 5.88194L11.9992 5.90094L12.0322 5.91994L12.1092 5.96894L12.1402 5.98994L12.1712 6.00994C12.5275 6.25092 12.8515 6.53658 13.1352 6.85994L13.1592 6.88795L13.1842 6.91594L13.2432 6.98394L13.2672 7.01194L13.2912 7.04095C13.4172 7.19295 13.5409 7.35561 13.6622 7.52894L14.6972 6.74694C14.534 6.53095 14.3441 6.33642 14.1322 6.16794L14.1022 6.14495L14.0722 6.12194L13.9992 6.06694L13.9692 6.04394L13.9392 6.02094C13.6039 5.79066 13.2402 5.60478 12.8572 5.46795C12.7782 5.43894 12.6982 5.41194 12.6182 5.38594L12.5812 5.37294L12.5442 5.36094L12.4512 5.33394L12.4132 5.32294L12.3752 5.31194C11.8329 5.15817 11.2751 5.06526 10.7122 5.03494H10.6702H10.6282H10.5282H10.4422C10.3672 5.03494 10.2912 5.03494 10.2152 5.03494C9.64397 5.03333 9.07415 5.09199 8.51521 5.20994L8.46721 5.21994L8.41921 5.22994L8.30121 5.25794L8.25221 5.27094L8.20121 5.28395C8.06121 5.31995 7.92321 5.35894 7.78621 5.40294C7.09375 5.60895 6.46459 5.98664 5.95721 6.50094C5.73309 6.73033 5.55663 7.00185 5.43803 7.29981C5.31943 7.59778 5.26103 7.91629 5.26621 8.23694C5.25868 8.6688 5.36197 9.09537 5.56621 9.47594L5.59121 9.52294L5.61721 9.56894C5.63821 9.60294 5.66221 9.63594 5.68421 9.66894L5.71221 9.70994L5.74021 9.75094C5.78421 9.81094 5.83221 9.86894 5.88221 9.92594C6.23983 10.327 6.6624 10.6651 7.13221 10.9259L7.16921 10.9459L7.20621 10.9659L7.29421 11.0139L7.33121 11.0339L7.36821 11.0549L7.38921 11.0659C7.82854 11.2826 8.36854 11.5159 9.00921 11.7659L9.04921 11.7819L9.08921 11.7979L9.18921 11.8349L9.22921 11.8509L9.26921 11.8669C9.41021 11.9209 9.55321 11.9749 9.70221 12.0309C10.2132 12.2249 10.6602 12.4069 11.0502 12.5779L11.0962 12.5979L11.1422 12.6179L11.2522 12.6679L11.2982 12.6889L11.3442 12.7099C11.64 12.844 11.9287 12.9932 12.2092 13.1569C12.4477 13.2771 12.6512 13.4565 12.8003 13.6781C12.9493 13.8996 13.0388 14.1558 13.0602 14.4219C13.0948 14.8159 12.9803 15.2085 12.7392 15.5219L12.7152 15.5519L12.6902 15.5819C12.6702 15.6069 12.6522 15.6319 12.6302 15.6559C12.6082 15.6799 12.6122 15.6729 12.6032 15.6819L12.5762 15.7079C12.4773 15.8093 12.3695 15.9017 12.2542 15.9839C11.9618 16.1889 11.6369 16.343 11.2932 16.4399L11.2572 16.4569L11.2192 16.4659L11.1272 16.4879L11.0882 16.4969L11.0512 16.5059C10.7224 16.5751 10.3872 16.6087 10.0512 16.6059C9.80325 16.6058 9.55574 16.585 9.31121 16.5439L9.26221 16.5359L9.21321 16.5279L9.09221 16.5029L9.04221 16.4909L8.99221 16.4789C8.57352 16.3771 8.17404 16.2082 7.80921 15.9789C7.23192 15.6128 6.73185 15.1372 6.33721 14.5789C6.30521 14.5339 6.27421 14.4869 6.24221 14.4399C6.21021 14.3929 6.18221 14.3519 6.15321 14.3069L6.14121 14.2889L6.06821 14.3379L6.03721 14.3589L6.00521 14.3799L4.99121 15.0699C5.50999 15.7021 6.192 16.18 6.96321 16.4519L7.01721 16.4729L7.07121 16.4949C7.11221 16.5099 7.15521 16.5229 7.19621 16.5379L7.24921 16.5559L7.30221 16.5739C7.94715 16.7877 8.61575 16.922 9.29321 16.9739H9.33921H9.38521L9.49721 16.9809H9.54321H9.58921C9.75621 16.9889 9.92521 16.9949 10.0962 16.9949C10.5091 16.995 10.9215 16.9656 11.3302 16.9069L11.3702 16.9009L11.4122 16.8949L11.5122 16.8809L11.5522 16.8749L11.5922 16.8679C12.0994 16.7786 12.5939 16.6285 13.0652 16.4209L13.0992 16.4059L13.1332 16.3909L13.2172 16.3539L13.2512 16.3389L13.2842 16.3219C13.4042 16.2629 13.5232 16.1999 13.6372 16.1329C13.9446 15.9573 14.2221 15.7338 14.4592 15.4709L14.4842 15.4419L14.5092 15.4129C14.5292 15.3889 14.5492 15.3639 14.5682 15.3399L14.5922 15.3089L14.6162 15.2779C14.839 14.9565 14.9914 14.5915 15.0635 14.2071C15.1355 13.8226 15.1255 13.4273 15.0342 13.0469" fill="white"/>
</g>
</svg>
