<svg width="22" height="16" viewBox="0 0 22 16" fill="none" xmlns="http://www.w3.org/2000/svg">
<path d="M10.2478 6.42758C10.4121 6.53223 10.6068 6.58824 10.8061 6.58824C11.0055 6.58824 11.2001 6.53223 11.3645 6.42758L20.7061 0.459532C20.2477 0.153763 19.6956 -0.0072429 19.1311 0.000250172H2.46708C1.92019 0.000441594 1.38694 0.158682 0.941406 0.45299L10.2478 6.42758Z" fill="white"/>
<path d="M12.2378 8.42947C11.8177 8.72418 11.3206 8.88185 10.8117 8.88185C10.3029 8.88185 9.80582 8.72418 9.38566 8.42947L0.170548 1.88232C0.0600042 2.17867 0.00223706 2.49299 0 2.81031L0 13.3256C0.00220186 14.0357 0.278542 14.7159 0.768463 15.2172C1.25838 15.7185 1.92192 16 2.61368 16H19.0417C19.732 15.9977 20.3934 15.7152 20.8815 15.2142C21.3697 14.7131 21.6449 14.0342 21.6471 13.3256V2.81031C21.6456 2.49878 21.5907 2.18994 21.4848 1.89798L12.2378 8.42947Z" fill="white"/>
</svg>
