<svg width="18" height="15" viewBox="0 0 18 15" fill="none" xmlns="http://www.w3.org/2000/svg">
<path d="M6.6962 13.9158C6.72017 13.5078 6.74215 13.1058 6.76812 12.7038C6.82506 11.8338 6.889 10.9638 6.93695 10.0928C6.93715 9.99516 6.95852 9.89873 6.99957 9.81016C7.04061 9.7216 7.10036 9.643 7.1747 9.57979C9.5722 7.42912 11.9657 5.27412 14.3552 3.11479C14.3868 3.09296 14.4151 3.06669 14.4391 3.03679C14.4941 2.94379 14.539 2.84779 14.592 2.75279C14.4836 2.7148 14.3691 2.69717 14.2543 2.70079C14.1078 2.74459 13.9694 2.81216 13.8448 2.90079C10.8652 4.77879 7.88729 6.66079 4.91105 8.54679C4.84336 8.59356 4.76517 8.62287 4.68344 8.63211C4.60171 8.64136 4.51896 8.63025 4.44254 8.59979C3.19284 8.19979 1.94015 7.79979 0.68945 7.39979C0.573308 7.36743 0.460566 7.32389 0.3528 7.26979C-0.0188127 7.06379 -0.0607691 6.74779 0.27588 6.48579C0.495191 6.31967 0.736608 6.18504 0.993134 6.08579C2.06402 5.66379 3.14389 5.25479 4.21778 4.83979L16.464 0.11379C16.535 0.0867896 16.6069 0.0577896 16.6798 0.0367896C16.7881 -0.0045667 16.9047 -0.0195282 17.0199 -0.00685821C17.1351 0.00581183 17.2456 0.0457495 17.3423 0.109653C17.4391 0.173557 17.5192 0.259591 17.5761 0.360643C17.6331 0.461695 17.6652 0.574862 17.6698 0.69079C17.6743 1.06433 17.6317 1.43695 17.5429 1.79979C16.6925 5.83779 15.8367 9.87446 14.9756 13.9098C14.7758 14.8598 14.1474 15.0908 13.3643 14.5098L9.69308 11.7998C9.62015 11.7458 9.54523 11.6928 9.45832 11.6298C9.40138 11.6808 9.34444 11.7298 9.2905 11.7798C8.67514 12.3798 8.06044 12.9771 7.44642 13.5718C7.35323 13.68 7.23796 13.7669 7.10838 13.8268C6.9788 13.8867 6.83791 13.918 6.6952 13.9188" fill="white"/>
</svg>
