<svg width="22" height="13" viewBox="0 0 22 13" fill="none" xmlns="http://www.w3.org/2000/svg">
<path d="M1.8696 5.66177C1.82433 5.57902 1.79518 5.48842 1.78369 5.39477C1.7687 5.29477 1.81865 5.18077 1.69178 5.12177C1.6748 5.12177 1.66481 5.10877 1.6718 5.08977C1.69678 4.98977 1.71975 4.88977 1.60288 4.82277C1.56991 4.81177 1.5759 4.78677 1.5809 4.76177C1.59865 4.73829 1.61099 4.71116 1.61706 4.68234C1.62312 4.65353 1.62275 4.62372 1.61598 4.59506C1.6092 4.5664 1.59619 4.5396 1.57786 4.51655C1.55954 4.49351 1.53636 4.47481 1.50997 4.46177C1.47001 4.41777 1.49099 4.35977 1.46302 4.31177C1.4845 4.20878 1.48487 4.1025 1.46409 3.99936C1.44331 3.89622 1.40183 3.79838 1.34215 3.71177C1.2892 3.66177 1.31418 3.59377 1.30119 3.53377C1.31677 3.51308 1.32788 3.48938 1.33383 3.46416C1.33977 3.43894 1.34042 3.41276 1.33572 3.38728C1.33103 3.3618 1.32109 3.33758 1.30655 3.31615C1.292 3.29471 1.27317 3.27654 1.25124 3.26277C1.21244 3.11642 1.18275 2.96781 1.16233 2.81777C1.21068 2.74378 1.23119 2.65499 1.22021 2.56726C1.20923 2.47953 1.16748 2.39855 1.1024 2.33877C1.06144 1.95377 1.01848 1.56977 0.979524 1.18477C0.97711 1.12908 0.978445 1.07329 0.983519 1.01777C1.05844 0.939774 1.04246 0.870774 0.953551 0.811774C0.948536 0.791842 0.947905 0.771058 0.951699 0.750857C0.955494 0.730657 0.963624 0.711522 0.975528 0.694774C0.946558 0.646774 0.979524 0.588774 0.951553 0.540774V0.363774C1.08042 0.253774 0.987515 0.158774 0.93457 0.060774C0.93457 0.028774 0.956547 0.017774 0.985517 0.017774H4.38199C4.44792 0.025774 4.42195 0.077774 4.42894 0.117774C4.39163 0.167425 4.37404 0.229161 4.37958 0.291042C4.38512 0.352923 4.41338 0.410549 4.45891 0.452774C4.46311 0.513548 4.46043 0.574603 4.45092 0.634774C4.44392 0.864774 4.48288 1.09277 4.49787 1.32077C4.51285 1.54877 4.54582 1.74777 4.5598 1.96177C4.5598 2.03977 4.60775 2.11177 4.58877 2.19077C4.56599 2.22279 4.55639 2.26236 4.56197 2.30128C4.56755 2.34019 4.58788 2.37546 4.61874 2.39977L4.70865 2.87877C4.62773 2.97877 4.68367 3.05377 4.76759 3.11777C4.84973 3.56252 4.96527 4.00043 5.11323 4.42777C5.1372 4.49977 5.16218 4.57177 5.18615 4.64477C5.13221 4.76277 5.18615 4.84477 5.27606 4.91377C5.4329 5.25477 5.58074 5.59877 5.76056 5.92877C5.75738 5.97606 5.76704 6.02332 5.78849 6.06557C5.80994 6.10782 5.8424 6.14347 5.88243 6.16878L5.94037 6.25478C5.93586 6.29845 5.94521 6.34243 5.96709 6.38049C5.98897 6.41854 6.02226 6.44873 6.06224 6.46677L6.47981 7.03478C6.47981 7.13478 6.54474 7.18278 6.62765 7.21378C6.64202 7.25962 6.66567 7.30202 6.69712 7.33832C6.72857 7.37462 6.76716 7.40405 6.81046 7.42478L7.10316 7.70078C7.11443 7.74377 7.1345 7.78395 7.1621 7.81878C7.17213 7.83522 7.1867 7.84842 7.20406 7.85678C7.30395 7.91878 7.37788 8.01777 7.48077 8.07877C7.49318 8.09524 7.50926 8.1086 7.52772 8.11777C7.59738 8.15571 7.66213 8.20206 7.72052 8.25577C7.74294 8.28656 7.77435 8.30962 7.81043 8.32177C7.86581 8.34508 7.92252 8.36511 7.98025 8.38177C8.00223 8.38177 8.0282 8.38177 8.03719 8.40977C8.05814 8.44675 8.08871 8.47734 8.12565 8.4983C8.16259 8.51925 8.20452 8.52979 8.24697 8.52877L8.75345 8.74777C8.79041 8.76977 8.80539 8.81677 8.85334 8.83077C8.88161 8.84175 8.91208 8.84587 8.94225 8.84277C8.97122 8.84277 8.99619 8.80977 9.02916 8.83177C9.17601 8.87078 9.17601 8.87077 9.17601 8.68677C9.17601 5.86344 9.17601 3.03977 9.17601 0.215774C9.17601 0.155774 9.17601 0.096774 9.17601 0.036774C9.20498 0.00977398 9.24194 0.018774 9.2759 0.018774H12.3877C12.4123 0.0169645 12.4371 0.0200224 12.4606 0.027774C12.4788 0.0793873 12.4836 0.134788 12.4746 0.188774C12.4746 1.75211 12.4746 3.31544 12.4746 4.87877C12.4746 4.93777 12.4416 5.01177 12.5175 5.05377C12.8025 5.0212 13.0813 4.94813 13.3457 4.83677C14.2033 4.47077 14.962 3.90632 15.5594 3.18977C16.3569 2.29187 16.9439 1.22692 17.2776 0.072774C17.2776 0.059774 17.2946 0.048774 17.3036 0.036774C17.3335 0.00977398 17.3695 0.018774 17.4035 0.018774H20.4863C20.5202 0.018774 20.5562 0.010774 20.5862 0.035774C20.5004 0.503917 20.3761 0.964154 20.2145 1.41177C19.9076 2.24854 19.4824 3.03691 18.9518 3.75277C18.7281 4.05877 18.4833 4.34677 18.2296 4.62977C17.7202 5.18565 17.1507 5.68304 16.5314 6.11277C16.4534 6.16877 16.3665 6.21277 16.2836 6.26178C16.1977 6.23177 16.1727 6.30377 16.1348 6.35278C16.1268 6.42877 16.1927 6.43777 16.2347 6.45977C16.4151 6.54338 16.5902 6.63789 16.7591 6.74277C16.8021 6.78377 16.8271 6.85678 16.91 6.82478L16.9689 6.86177C17.0119 6.92777 17.0498 7.00077 17.1487 6.97477L17.2686 7.06378C17.2867 7.09742 17.3127 7.12613 17.3444 7.14739C17.376 7.16866 17.4125 7.18184 17.4504 7.18578L17.4784 7.21378C17.4943 7.24888 17.5196 7.27888 17.5515 7.30043C17.5834 7.32197 17.6207 7.33421 17.6592 7.33577L17.7461 7.40177C17.8097 7.48631 17.8921 7.5548 17.9869 7.60178L18.0458 7.64078C18.0818 7.70478 18.1097 7.77677 18.1986 7.78377L18.3145 7.88378C18.3425 7.91378 18.3455 7.97078 18.4054 7.96578C18.6142 8.15578 18.815 8.35478 19.0048 8.56577C19.0118 8.65477 19.0847 8.68277 19.1476 8.71877L19.2146 8.80477C19.2226 8.89677 19.2955 8.92478 19.3644 8.95677C19.4019 9.09273 19.4884 9.20995 19.6072 9.28577L19.752 9.46477C19.7534 9.50345 19.7657 9.54095 19.7875 9.57296C19.8092 9.60497 19.8395 9.63021 19.8749 9.64577L20.1406 10.0338C20.1696 10.148 20.2298 10.2519 20.3144 10.3338L20.3524 10.3918C20.3469 10.407 20.3446 10.4233 20.3458 10.4395C20.3469 10.4557 20.3515 10.4715 20.3591 10.4858C20.3667 10.5001 20.3773 10.5127 20.3901 10.5227C20.4028 10.5327 20.4176 10.5398 20.4333 10.5438L20.5332 10.7188C20.5306 10.7846 20.5452 10.8501 20.5757 10.9085C20.6062 10.9669 20.6515 11.0163 20.707 11.0518L20.8019 11.2588C20.8019 11.3318 20.7879 11.4128 20.8858 11.4408C20.8903 11.4487 20.8924 11.4577 20.8918 11.4668C20.8818 11.5448 20.8918 11.6138 20.9747 11.6498L21.2744 12.5178C21.2205 12.6018 21.2824 12.6478 21.3334 12.6978V12.7558C21.2984 12.7828 21.2565 12.7718 21.2175 12.7718H17.841C17.802 12.7718 17.7611 12.7828 17.7251 12.7558L17.6072 12.4278C17.6254 12.3621 17.6227 12.2925 17.5994 12.2285C17.5761 12.1645 17.5335 12.1093 17.4774 12.0708C17.4464 12.0608 17.4534 12.0338 17.4504 12.0118C17.4288 11.8146 17.3348 11.6325 17.1867 11.5008C17.1727 11.4728 17.1427 11.4508 17.1507 11.4138C17.1491 11.3458 17.1298 11.2795 17.0948 11.2212C17.0598 11.163 17.0102 11.115 16.9509 11.0818L16.7961 10.8458C16.7591 10.7228 16.7381 10.5898 16.5863 10.5458C16.5024 10.4968 16.4744 10.3988 16.4075 10.3358C16.4025 10.2648 16.3436 10.2428 16.2946 10.2128C16.0564 9.94285 15.7935 9.69578 15.5094 9.47477C15.4878 9.45497 15.4683 9.43284 15.4515 9.40877C15.3806 9.31977 15.3226 9.20877 15.1838 9.22077L15.004 9.10177C14.968 9.04877 14.95 8.96577 14.8541 9.01077L14.1059 8.62978C14.1002 8.61157 14.0905 8.59488 14.0775 8.58094C14.0645 8.567 14.0485 8.55617 14.0308 8.54925C14.013 8.54234 13.994 8.53951 13.975 8.54099C13.956 8.54246 13.9376 8.5482 13.9211 8.55777C13.6274 8.45425 13.327 8.37105 13.022 8.30877C12.8471 8.27056 12.6694 8.24714 12.4906 8.23877C12.4709 8.29006 12.4658 8.34575 12.4756 8.39977C12.4756 9.79377 12.4756 11.1878 12.4756 12.5818C12.4797 12.6364 12.4797 12.6912 12.4756 12.7458C12.2819 12.7711 12.0862 12.7785 11.8912 12.7678C11.8025 12.7628 11.7135 12.7662 11.6255 12.7778H11.5415C11.4936 12.7488 11.4367 12.7778 11.3877 12.7558C10.9863 12.751 10.5857 12.7175 10.189 12.6558C10.138 12.5928 10.0841 12.5488 10.0091 12.6258C9.70509 12.5907 9.40441 12.5308 9.11007 12.4468C9.06801 12.395 9.01035 12.3583 8.94571 12.3421C8.88107 12.3259 8.81292 12.331 8.75145 12.3568C8.71948 12.3568 8.68252 12.3778 8.66054 12.3348C8.6046 12.2348 8.51769 12.2348 8.42279 12.2658C8.35848 12.2636 8.29612 12.2431 8.24298 12.2068C8.20801 12.1788 8.17605 12.1348 8.1231 12.1768L7.85438 12.0868C7.83855 12.0494 7.81361 12.0167 7.78184 11.9915C7.75007 11.9664 7.7125 11.9496 7.67257 11.9428C7.61163 11.9098 7.53671 11.9098 7.48177 11.8618C7.36888 11.8288 7.26899 11.7328 7.13713 11.7878L6.65862 11.5488C6.63553 11.5087 6.60619 11.4726 6.57171 11.4418C6.55774 11.429 6.54232 11.4179 6.52576 11.4088C6.47455 11.3808 6.41575 11.3699 6.35793 11.3778C6.28283 11.3483 6.21248 11.3078 6.14915 11.2578C6.12412 11.2042 6.08598 11.1577 6.03827 11.1228C6.01151 11.0958 5.98045 11.0735 5.94636 11.0568C5.89961 11.0273 5.84463 11.0136 5.78953 11.0178C5.77989 11.0159 5.7705 11.0128 5.76155 11.0088C5.7156 10.9438 5.70561 10.8308 5.57974 10.8688C5.40432 10.765 5.24055 10.6426 5.09125 10.5038C4.99256 10.4404 4.90483 10.3614 4.83152 10.2698C4.82278 10.2208 4.79694 10.1765 4.7586 10.1448C4.74955 10.1358 4.73987 10.1274 4.72963 10.1198C4.69666 10.1008 4.66669 10.0728 4.62274 10.0888C4.50468 9.98797 4.39478 9.87796 4.29408 9.75977C4.28694 9.74963 4.28216 9.73801 4.28009 9.72577C4.26785 9.68402 4.24896 9.64451 4.22415 9.60877C4.19119 9.55577 4.13025 9.54677 4.0813 9.51977C3.80444 9.23534 3.55555 8.92491 3.33807 8.59277C3.33021 8.58266 3.32536 8.57053 3.32409 8.55777C3.32646 8.51348 3.31716 8.46934 3.29712 8.42977C3.28413 8.40077 3.26315 8.37677 3.25016 8.34777C3.23921 8.318 3.22181 8.29102 3.19922 8.26877C3.18889 8.26199 3.1792 8.25429 3.17025 8.24577C3.14526 8.21884 3.11628 8.1959 3.08434 8.17777H3.06636C3.01441 8.15477 3.00642 8.09877 2.97945 8.05677C2.97437 8.05182 2.97082 8.04551 2.96923 8.0386C2.96763 8.03168 2.96806 8.02445 2.97045 8.01777C2.97874 7.96906 2.96916 7.91898 2.94348 7.87678C2.93355 7.86143 2.92181 7.84733 2.90852 7.83477C2.88057 7.80122 2.84671 7.77309 2.80862 7.75178C2.75603 7.68997 2.71569 7.6187 2.68975 7.54178C2.71172 7.46778 2.66677 7.40677 2.65179 7.34177C2.64578 7.33057 2.63839 7.32015 2.62981 7.31078C2.59382 7.27333 2.55397 7.23981 2.51093 7.21077C2.49695 7.18177 2.46398 7.15978 2.48096 7.11978C2.49795 7.07978 2.47397 7.06077 2.48096 7.03177C2.48227 7.00768 2.47887 6.98357 2.47097 6.96077C2.445 6.92177 2.39905 6.91077 2.36608 6.88177C2.3491 6.85377 2.32413 6.82977 2.32912 6.79278C2.33412 6.75577 2.32912 6.73277 2.32912 6.70278C2.33072 6.67867 2.32732 6.6545 2.31913 6.63177C2.29316 6.59377 2.24721 6.58177 2.21424 6.55277L1.94552 5.89377C1.95872 5.87423 1.96741 5.85199 1.97096 5.82866C1.97451 5.80533 1.97283 5.78151 1.96603 5.75892C1.95924 5.73632 1.94752 5.71552 1.9317 5.69803C1.91588 5.68054 1.89638 5.66679 1.87459 5.65777" fill="white"/>
<path d="M1.3418 3.71484C1.4748 3.71484 1.5418 3.77484 1.4998 3.91484C1.4928 3.93684 1.4768 3.96484 1.4978 3.98284C1.6418 4.11484 1.5418 4.21484 1.4628 4.31484C1.40506 4.11875 1.36457 3.91799 1.3418 3.71484Z" fill="white"/>
<path d="M1.10254 2.33887C1.33754 2.33887 1.26354 2.53287 1.30254 2.65187C1.32554 2.74887 1.26554 2.80987 1.16254 2.81787L1.10254 2.33887Z" fill="white"/>
<path d="M7.76371 8.38372L7.6748 8.32372C7.66429 8.27732 7.63711 8.2364 7.59843 8.20874C7.55975 8.18108 7.51227 8.16862 7.46501 8.17372L7.43504 8.14372C7.41406 8.09072 7.39807 8.04172 7.43603 7.99072L7.94653 8.35172C7.89558 8.42172 7.83065 8.40472 7.76371 8.38372Z" fill="white"/>
<path d="M3.33915 8.56275V8.59575C3.22763 8.47067 3.13567 8.3294 3.06641 8.17675L3.0774 8.17075C3.10616 8.15907 3.1377 8.15596 3.16819 8.16182C3.19868 8.16768 3.22683 8.18224 3.24923 8.20375C3.27121 8.24275 3.27521 8.29075 3.30918 8.32375L3.36612 8.38375C3.3871 8.44875 3.40509 8.51275 3.33615 8.56375" fill="white"/>
<path d="M17.1855 11.4959C17.2944 11.4739 17.3663 11.4989 17.3504 11.6299C17.3465 11.6446 17.3479 11.6603 17.3543 11.6741C17.3606 11.688 17.3716 11.6992 17.3853 11.7059C17.5252 11.7799 17.5162 11.8869 17.4512 12.0059L17.1855 11.4959Z" fill="white"/>
<path d="M7.52549 11.7947C7.56545 11.8647 7.64535 11.8507 7.70429 11.8807C7.71328 11.9497 7.85711 11.9497 7.79418 12.0557L7.3457 11.8807C7.36168 11.7697 7.36368 11.7687 7.52549 11.7947Z" fill="white"/>
<path d="M8.75 12.3588C8.79396 12.2388 8.88987 12.2718 8.97479 12.2868C8.99482 12.2869 9.01458 12.2914 9.03269 12.2999C9.05079 12.3085 9.06679 12.321 9.07956 12.3364C9.09232 12.3519 9.10155 12.3699 9.10658 12.3894C9.11161 12.4088 9.11232 12.429 9.10866 12.4488C8.98489 12.4392 8.86362 12.4088 8.75 12.3588Z" fill="white"/>
<path d="M6.00013 10.987C6.00925 11.0034 6.02216 11.0174 6.0378 11.0279C6.05344 11.0383 6.07134 11.0449 6.09002 11.047C6.1133 11.0708 6.12859 11.1014 6.13378 11.1343C6.13897 11.1673 6.1338 11.2011 6.11899 11.231C6.00969 11.1878 5.9084 11.1266 5.81934 11.05C5.84331 10.924 5.92921 10.978 6.00013 10.987Z" fill="white"/>
<path d="M1.50977 4.46484C1.59577 4.46484 1.66977 4.47784 1.68977 4.57684C1.69504 4.59635 1.69641 4.6167 1.69378 4.63673C1.69115 4.65677 1.68458 4.67608 1.67444 4.69356C1.66431 4.71104 1.65081 4.72633 1.63473 4.73857C1.61866 4.75081 1.60031 4.75974 1.58077 4.76484L1.50977 4.46484Z" fill="white"/>
<path d="M1.25008 3.26587C1.33408 3.26587 1.40608 3.28387 1.42108 3.37687C1.42514 3.39526 1.42521 3.4143 1.42131 3.43272C1.4174 3.45114 1.40959 3.46851 1.39842 3.48367C1.38724 3.49882 1.37295 3.51141 1.35651 3.52059C1.34006 3.52976 1.32185 3.53531 1.30308 3.53687C1.2667 3.45122 1.24865 3.35891 1.25008 3.26587Z" fill="white"/>
<path d="M16.5811 10.5427C16.6084 10.5358 16.6369 10.5353 16.6645 10.5412C16.692 10.5471 16.7179 10.5593 16.74 10.5768C16.7621 10.5943 16.7799 10.6166 16.792 10.6421C16.8041 10.6676 16.8102 10.6955 16.8098 10.7237C16.806 10.7614 16.7997 10.7988 16.7908 10.8357C16.71 10.7464 16.6396 10.6481 16.5811 10.5427Z" fill="white"/>
<path d="M16.9463 11.0767C16.9851 11.0772 17.0231 11.0875 17.0567 11.1069C17.0903 11.1262 17.1185 11.1537 17.1385 11.187C17.1585 11.2202 17.1697 11.258 17.171 11.2968C17.1723 11.3356 17.1637 11.3741 17.1461 11.4087L16.9463 11.0767Z" fill="white"/>
<path d="M17.4756 12.0657C17.6546 12.0927 17.7106 12.2477 17.6056 12.4227L17.4756 12.0657Z" fill="white"/>
<path d="M0.952595 0.09375C1.03459 0.09875 1.09259 0.13975 1.09259 0.22875C1.09259 0.31775 1.03459 0.35775 0.952595 0.36275L0.942595 0.15375C0.934595 0.13175 0.928595 0.11075 0.952595 0.09375Z" fill="white"/>
<path d="M5.27799 4.91182C5.20599 4.91282 5.13499 4.89882 5.11299 4.81682C5.09987 4.7838 5.1004 4.74692 5.11446 4.71429C5.12852 4.68166 5.15497 4.65595 5.18799 4.64282C5.23764 4.72467 5.26839 4.81657 5.27799 4.91182Z" fill="white"/>
<path d="M20.7085 11.0469C20.5317 11.0209 20.4718 10.9049 20.5307 10.7139C20.6038 10.8169 20.6635 10.9288 20.7085 11.0469Z" fill="white"/>
<path d="M4.29582 9.72981V9.76381C4.20554 9.70236 4.13177 9.61959 4.08105 9.52281C4.15997 9.47481 4.2279 9.51481 4.29582 9.55081C4.31936 9.6085 4.31936 9.67312 4.29582 9.73081" fill="white"/>
<path d="M4.44006 0.422809C4.42276 0.424453 4.40531 0.422559 4.38877 0.417243C4.37223 0.411926 4.35695 0.403298 4.34385 0.391884C4.33075 0.38047 4.32011 0.366508 4.31259 0.350851C4.30506 0.335193 4.30079 0.318167 4.30006 0.300809C4.29768 0.28364 4.29876 0.266169 4.30323 0.249424C4.3077 0.232678 4.31548 0.216996 4.3261 0.2033C4.33672 0.189603 4.34997 0.178169 4.36508 0.16967C4.38019 0.161171 4.39684 0.155778 4.41406 0.153809C4.43906 0.166809 4.42606 0.196809 4.44106 0.213809L4.45106 0.391809C4.46372 0.408475 4.46006 0.418809 4.44006 0.422809Z" fill="white"/>
<path d="M19.6069 9.27871C19.5689 9.27382 19.5322 9.26136 19.499 9.24207C19.4659 9.22277 19.437 9.19703 19.4139 9.16636C19.3909 9.13569 19.3743 9.10071 19.365 9.0635C19.3557 9.02629 19.354 8.9876 19.3599 8.94971C19.4556 9.04865 19.5386 9.15917 19.6069 9.27871Z" fill="white"/>
<path d="M1.60254 4.82269C1.66054 4.82269 1.72854 4.80669 1.75554 4.88269C1.78754 4.97469 1.72454 5.03069 1.67154 5.08969L1.60254 4.82269Z" fill="white"/>
<path d="M15.1777 9.21789C15.3187 9.14989 15.4167 9.21789 15.4457 9.40589C15.347 9.35778 15.2566 9.29433 15.1777 9.21789Z" fill="white"/>
<path d="M2.98315 8.02388V8.05688C2.9187 7.97467 2.86618 7.88377 2.82715 7.78688C2.85107 7.77499 2.87743 7.7688 2.90415 7.7688C2.93087 7.7688 2.95722 7.77499 2.98115 7.78688L3.01115 7.81688C3.02601 7.85061 3.03126 7.8878 3.02632 7.92433C3.02138 7.96085 3.00644 7.99531 2.98315 8.02388Z" fill="white"/>
<path d="M1.86816 5.66174C1.93016 5.66174 2.00416 5.64474 2.02716 5.73174C2.03696 5.76556 2.03327 5.80185 2.01686 5.833C2.00044 5.86414 1.97259 5.88771 1.93916 5.89874L1.86816 5.66174Z" fill="white"/>
<path d="M6.59865 11.3456L6.62865 11.3756C6.63966 11.3989 6.64529 11.4244 6.64512 11.4502C6.64495 11.476 6.63898 11.5014 6.62765 11.5246C6.53265 11.5156 6.47065 11.4406 6.38965 11.4006C6.43165 11.2776 6.52265 11.3396 6.59865 11.3456Z" fill="white"/>
<path d="M8.81031 8.8928C8.78748 8.87694 8.76968 8.85483 8.75905 8.82912C8.74843 8.80341 8.74541 8.77518 8.75037 8.7478C8.84519 8.75953 8.93718 8.78797 9.02209 8.8318L8.96016 8.8928C8.93684 8.90428 8.91121 8.91024 8.88523 8.91024C8.85926 8.91024 8.83362 8.90428 8.81031 8.8928Z" fill="white"/>
<path d="M2.20801 6.55773C2.26795 6.55248 2.32824 6.56281 2.38301 6.58773C2.39441 6.61109 2.40033 6.63674 2.40033 6.66273C2.40033 6.68872 2.39441 6.71437 2.38301 6.73773L2.32101 6.79873C2.27223 6.72409 2.23419 6.64296 2.20801 6.55773Z" fill="white"/>
<path d="M2.3584 6.88683C2.41834 6.88158 2.47863 6.89191 2.5334 6.91683C2.5448 6.94019 2.55072 6.96584 2.55072 6.99183C2.55072 7.01782 2.5448 7.04347 2.5334 7.06683L2.4784 7.12583C2.42494 7.05367 2.38434 6.97281 2.3584 6.88683Z" fill="white"/>
<path d="M8.42188 12.2678C8.43616 12.2378 8.46007 12.2136 8.48977 12.1989C8.51947 12.1842 8.55323 12.1799 8.58565 12.1868C8.66254 12.2068 8.65755 12.2718 8.65955 12.3318C8.57666 12.3277 8.49562 12.3059 8.42188 12.2678Z" fill="white"/>
<path d="M2.68011 7.51999L2.53711 7.27599C2.59611 7.18799 2.65411 7.24399 2.71211 7.27599C2.72827 7.31597 2.73382 7.35945 2.72821 7.4022C2.7226 7.44496 2.70603 7.48553 2.68011 7.51999Z" fill="white"/>
<path d="M4.76949 3.11571C4.69349 3.11171 4.62949 3.08771 4.61649 3.00171C4.60949 2.93471 4.63049 2.88171 4.71049 2.87671L4.76949 3.11571Z" fill="white"/>
<path d="M1.69141 5.1228C1.85841 5.1498 1.86841 5.1798 1.78341 5.3958C1.73622 5.31123 1.70504 5.21868 1.69141 5.1228Z" fill="white"/>
<path d="M4.80232 10.2429C4.72832 10.2329 4.69432 10.1739 4.65332 10.1219C4.66232 10.0319 4.66332 10.0309 4.80432 10.0589C4.84432 10.1209 4.88532 10.1829 4.80232 10.2429Z" fill="white"/>
<path d="M7.13637 7.90468L7.10641 7.87468C7.09835 7.86261 7.09277 7.84907 7.08996 7.83484C7.08716 7.8206 7.0872 7.80595 7.09008 7.79173C7.09296 7.77751 7.09862 7.764 7.10673 7.75197C7.11485 7.73995 7.12526 7.72966 7.13737 7.72168L7.33716 7.90468C7.27264 7.92822 7.20189 7.92822 7.13737 7.90468" fill="white"/>
<path d="M7.13574 7.90479H7.33556C7.36453 7.94179 7.42348 7.94079 7.43547 7.99079C7.44746 8.04079 7.43547 8.09079 7.43547 8.14379C7.36577 8.03218 7.26 7.94784 7.13574 7.90479Z" fill="white"/>
<path d="M0.952148 0.811768C1.02215 0.811768 1.07815 0.831768 1.08815 0.911768C1.09815 0.991768 1.04015 1.00577 0.982148 1.02177L0.952148 0.811768Z" fill="white"/>
<path d="M5.58008 10.8729C5.59808 10.8229 5.63208 10.8019 5.68008 10.8239C5.76708 10.8609 5.76108 10.9389 5.76208 11.0149L5.58008 10.8729Z" fill="white"/>
<path d="M20.3142 10.3278C20.2566 10.3032 20.2084 10.2608 20.1765 10.2069C20.1447 10.1529 20.1309 10.0902 20.1372 10.0278C20.2099 10.1191 20.2695 10.2201 20.3142 10.3278Z" fill="white"/>
<path d="M7.52466 11.7928C7.45373 11.7988 7.37282 11.7808 7.34585 11.8778C7.32587 11.8858 7.31788 11.8748 7.31388 11.8588C7.27792 11.8038 7.23597 11.7598 7.16504 11.7988L7.13608 11.7928C7.13459 11.7752 7.13811 11.7575 7.14623 11.7418C7.15435 11.726 7.16674 11.7129 7.18198 11.7039C7.19722 11.6949 7.21469 11.6904 7.23237 11.691C7.25005 11.6915 7.26723 11.697 7.28192 11.7068C7.36083 11.7458 7.44774 11.7558 7.52466 11.7928Z" fill="white"/>
<path d="M17.9897 7.60088C17.9339 7.59658 17.8807 7.57504 17.8376 7.53922C17.7945 7.50339 17.7635 7.45506 17.749 7.40088C17.841 7.45197 17.9226 7.51979 17.9897 7.60088Z" fill="white"/>
<path d="M4.62089 2.3987C4.48189 2.3367 4.47489 2.2897 4.59089 2.1897C4.59089 2.2607 4.65189 2.3227 4.62089 2.3987Z" fill="white"/>
<path d="M17.1517 6.97384C17.0377 7.04984 16.9957 7.02384 16.9717 6.86084C17.0377 6.88792 17.0986 6.92614 17.1517 6.97384Z" fill="white"/>
<path d="M14.8486 9.00668C14.8616 8.96068 14.8836 8.92268 14.9386 8.94368C15.0146 8.97068 15.0146 9.03268 14.9986 9.09768C14.943 9.07787 14.8919 9.04691 14.8486 9.00668Z" fill="white"/>
<path d="M6.63051 7.21367C6.46451 7.19867 6.44151 7.17067 6.48251 7.03467C6.55451 7.07567 6.58251 7.15467 6.63151 7.21367" fill="white"/>
<path d="M13.9229 8.55775C13.9529 8.51975 13.9799 8.47375 14.0389 8.48875C14.0979 8.50375 14.1009 8.57175 14.1009 8.62575L13.9229 8.55775Z" fill="white"/>
<path d="M6.06566 6.46566C5.91766 6.45366 5.88766 6.37966 5.94266 6.25366C5.99369 6.31802 6.03512 6.38942 6.06566 6.46566Z" fill="white"/>
<path d="M10.0059 12.6278C10.0059 12.5728 10.0309 12.5278 10.0969 12.5368C10.1629 12.5458 10.1839 12.5978 10.1859 12.6578L10.0059 12.6278Z" fill="white"/>
<path d="M20.8828 11.4369C20.7428 11.4249 20.7268 11.3919 20.7988 11.2549L20.8828 11.4369Z" fill="white"/>
<path d="M17.4539 7.18572C17.3439 7.21872 17.2649 7.20472 17.2719 7.06372C17.3436 7.08496 17.407 7.12752 17.4539 7.18572Z" fill="white"/>
<path d="M16.9127 6.82484C16.8067 6.89584 16.7897 6.88584 16.7617 6.74184C16.8317 6.73384 16.8617 6.80384 16.9127 6.82484Z" fill="white"/>
<path d="M19.8755 9.63876C19.7375 9.64676 19.7195 9.56776 19.7525 9.45776C19.7895 9.52076 19.8605 9.55776 19.8755 9.63876Z" fill="white"/>
<path d="M20.972 11.6459C20.823 11.6399 20.816 11.5699 20.889 11.4629L20.972 11.6459Z" fill="white"/>
<path d="M17.6619 7.33489C17.5519 7.36789 17.4729 7.35389 17.4799 7.21289C17.5619 7.22189 17.5949 7.30289 17.6619 7.33489Z" fill="white"/>
<path d="M19.3654 8.95083C19.2654 8.95083 19.1654 8.95083 19.2154 8.79883L19.3654 8.95083Z" fill="white"/>
<path d="M16.1357 6.35184C16.1457 6.25684 16.1467 6.14584 16.2847 6.26184C16.2357 6.29284 16.1997 6.34584 16.1357 6.35184Z" fill="white"/>
<path d="M19.1502 8.71281C19.0482 8.71281 18.9562 8.70281 19.0062 8.55981C19.0657 8.59859 19.1151 8.65105 19.1502 8.71281Z" fill="white"/>
<path d="M7.16504 11.7977C7.16744 11.7872 7.17207 11.7774 7.17863 11.769C7.18519 11.7605 7.19351 11.7535 7.20302 11.7486C7.21253 11.7436 7.22301 11.7408 7.23371 11.7403C7.24442 11.7398 7.25511 11.7416 7.26504 11.7457C7.32004 11.7657 7.31204 11.8147 7.31504 11.8577L7.16504 11.7977Z" fill="white"/>
<path d="M18.2009 7.78387C18.0579 7.83487 18.0479 7.74087 18.0479 7.64087C18.1095 7.67572 18.1619 7.72473 18.2009 7.78387Z" fill="white"/>
<path d="M20.4344 10.5387C20.2964 10.5247 20.2804 10.4947 20.3534 10.3867C20.4004 10.4267 20.4104 10.4867 20.4344 10.5387Z" fill="white"/>
<path d="M7.79353 12.0598C7.78353 11.9908 7.69653 11.9628 7.70353 11.8848C7.79653 11.9218 7.87353 11.9708 7.85353 12.0848L7.79353 12.0598Z" fill="white"/>
<path d="M21.33 12.6937C21.183 12.6287 21.176 12.6077 21.271 12.5137L21.33 12.6937Z" fill="white"/>
<path d="M5.88354 6.16773C5.70384 6.15673 5.67987 6.11073 5.76174 5.92773C5.79169 5.93773 5.7897 5.96473 5.79369 5.98873C5.78771 6.01951 5.7926 6.05141 5.80754 6.07896C5.82248 6.10652 5.84653 6.128 5.87556 6.13973C5.87902 6.14882 5.88169 6.15819 5.88354 6.16773Z" fill="white"/>
<path d="M6.65947 7.24268C6.71838 7.28218 6.76761 7.33448 6.80347 7.39568C6.63447 7.42468 6.61647 7.40468 6.65947 7.24268Z" fill="white"/>
<path d="M8.06283 8.4187C8.11872 8.43425 8.17035 8.46228 8.21383 8.5007C8.19683 8.5887 8.12983 8.5577 8.08783 8.5437C8.02483 8.5187 8.04483 8.4657 8.06283 8.4187Z" fill="white"/>
<path d="M5.87659 6.13879C5.76459 6.13579 5.73759 6.08779 5.79459 5.98779C5.83518 6.02971 5.86354 6.08193 5.87659 6.13879Z" fill="white"/>
<path d="M8.06318 8.41867C8.06318 8.53367 8.11818 8.55767 8.21418 8.50067L8.24418 8.52867C8.10118 8.61767 8.04418 8.58567 8.03418 8.40967L8.06318 8.41867Z" fill="white"/>
<path d="M6.65847 7.24289C6.64547 7.35189 6.68647 7.41289 6.80347 7.39589C6.80958 7.40429 6.814 7.4138 6.81647 7.42389C6.61647 7.42389 6.59547 7.39989 6.62947 7.21289L6.65847 7.24289Z" fill="white"/>
<path d="M16.2881 10.2088C16.3681 10.2088 16.4601 10.2018 16.4011 10.3318C16.3521 10.3028 16.3128 10.26 16.2881 10.2088Z" fill="white"/>
<path d="M2.67977 7.51988C2.70476 7.44107 2.7156 7.35846 2.71177 7.27588C2.73593 7.31786 2.74641 7.36632 2.74175 7.41453C2.73709 7.46274 2.71753 7.50831 2.68577 7.54488C2.68132 7.53733 2.67924 7.52862 2.67977 7.51988Z" fill="white"/>
<path d="M6.59842 11.3457C6.52542 11.3507 6.44442 11.3277 6.38942 11.4007C6.37042 11.4067 6.35742 11.3957 6.35742 11.3797C6.38533 11.3439 6.42607 11.3203 6.47104 11.314C6.51602 11.3076 6.56169 11.319 6.59842 11.3457Z" fill="white"/>
<path d="M2.70781 7.27688C2.65381 7.26388 2.59581 7.23788 2.53781 7.27588L2.50781 7.21688C2.58081 7.21688 2.66081 7.19888 2.70781 7.27688Z" fill="white"/>
<path d="M6.00006 10.9867C5.93306 10.9877 5.86206 10.9787 5.81906 11.0497L5.78906 11.0217C5.79993 11.0047 5.81425 10.9902 5.83108 10.9791C5.84791 10.968 5.86689 10.9606 5.88678 10.9573C5.90667 10.954 5.92703 10.9549 5.94655 10.9599C5.96606 10.965 5.98429 10.9741 6.00006 10.9867Z" fill="white"/>
<path d="M4.80273 10.2448C4.81604 10.2158 4.82292 10.1842 4.82292 10.1523C4.82292 10.1204 4.81604 10.0888 4.80273 10.0598C4.88973 10.1218 4.86473 10.1968 4.83273 10.2738L4.80273 10.2448Z" fill="white"/>
<path d="M18.4074 7.96066C18.3024 8.01666 18.3264 7.92866 18.3164 7.87866C18.3362 7.88568 18.3545 7.89654 18.3701 7.91061C18.3857 7.92468 18.3984 7.94169 18.4074 7.96066Z" fill="white"/>
<path d="M8.12305 12.1788C8.18705 12.0928 8.21705 12.1418 8.24305 12.2088C8.19505 12.2328 8.16605 12.1748 8.12305 12.1788Z" fill="white"/>
<path d="M6.11784 11.2309L6.08984 11.0469C6.16984 11.1009 6.14484 11.1849 6.14884 11.2599L6.11784 11.2309Z" fill="white"/>
<path d="M4.80502 10.0598C4.74702 10.0628 4.68102 10.0468 4.65402 10.1228L4.62402 10.0928C4.67002 10.0028 4.73602 10.0228 4.80502 10.0598Z" fill="white"/>
<path d="M7.76367 8.38281C7.82625 8.38837 7.8892 8.37769 7.94645 8.35181L7.97742 8.38081C7.94528 8.4004 7.90845 8.41092 7.87082 8.41128C7.83319 8.41163 7.79617 8.40179 7.76367 8.38281Z" fill="white"/>
<path d="M7.13814 7.72175C7.11517 7.76936 7.10451 7.82196 7.10714 7.87475C7.08906 7.84883 7.07928 7.81802 7.0791 7.78641C7.07893 7.7548 7.08835 7.72388 7.10614 7.69775C7.12514 7.69775 7.13414 7.70475 7.13814 7.72175Z" fill="white"/>
<path d="M2.98069 7.78473H2.82769C2.81069 7.78173 2.80469 7.77373 2.80469 7.75473C2.86505 7.74548 2.92679 7.756 2.98069 7.78473Z" fill="white"/>
<path d="M6.62695 11.5277V11.3757C6.65554 11.4293 6.66606 11.4907 6.65695 11.5507C6.63795 11.5557 6.62695 11.5447 6.62695 11.5277Z" fill="white"/>
<path d="M7.46484 8.17072C7.5807 8.15572 7.6646 8.19072 7.67358 8.32072C7.62416 8.24733 7.5501 8.19411 7.46484 8.17072Z" fill="white"/>
<path d="M2.9834 8.0227L3.0104 7.8147C3.02245 7.83006 3.03132 7.84767 3.0365 7.8665C3.04167 7.88533 3.04304 7.905 3.04052 7.92436C3.03801 7.94372 3.03166 7.96239 3.02186 7.97928C3.01205 7.99616 2.99897 8.01092 2.9834 8.0227Z" fill="white"/>
<path d="M3.25015 8.20391L3.07715 8.17191C3.09009 8.16127 3.10521 8.15359 3.12144 8.1494C3.13767 8.14521 3.15461 8.14462 3.17109 8.14767C3.18757 8.15072 3.20319 8.15733 3.21684 8.16705C3.2305 8.17676 3.24187 8.18935 3.25015 8.20391Z" fill="white"/>
<path d="M3.33984 8.56379C3.36501 8.50732 3.37533 8.44536 3.36984 8.38379C3.40484 8.45079 3.42584 8.51579 3.33984 8.56379Z" fill="white"/>
<path d="M4.2959 9.73078V9.55078C4.31522 9.57681 4.32565 9.60837 4.32565 9.64078C4.32565 9.6732 4.31522 9.70475 4.2959 9.73078Z" fill="white"/>
<path d="M2.38281 6.73789V6.58789C2.40057 6.60885 2.41032 6.63542 2.41032 6.66289C2.41032 6.69036 2.40057 6.71694 2.38281 6.73789Z" fill="white"/>
<path d="M2.53223 7.06675V6.91675C2.54999 6.9377 2.55973 6.96428 2.55973 6.99175C2.55973 7.01922 2.54999 7.04579 2.53223 7.06675Z" fill="white"/>
<path d="M3.31055 8.32386C3.29034 8.31145 3.27401 8.29363 3.26341 8.27243C3.2528 8.25122 3.24835 8.22747 3.25055 8.20386C3.28377 8.23576 3.30496 8.27814 3.31055 8.32386Z" fill="white"/>
<path d="M8.81055 8.89282H8.96055C8.93959 8.91058 8.91302 8.92033 8.88555 8.92033C8.85808 8.92033 8.8315 8.91058 8.81055 8.89282Z" fill="white"/>
</svg>
