<svg width="202" height="64" viewBox="0 0 202 64" fill="none" xmlns="http://www.w3.org/2000/svg">
<path d="M68.0391 52.5869H69.6149V62.2753H75.602V63.6503H68.0391V52.5869Z" fill="white"/>
<path d="M91.753 62.2821V63.6571H83.7344V52.5938H91.5378V53.9687H85.3166V57.3651H90.8606V58.7084H85.3166V62.2821H91.753Z" fill="white"/>
<path d="M108.24 58.0618H109.752V62.3769C109.208 62.8332 108.569 63.1753 107.841 63.4224C107.113 63.6632 106.36 63.7836 105.569 63.7836C104.455 63.7836 103.449 63.5365 102.55 63.0486C101.658 62.5607 100.955 61.8827 100.443 61.0273C99.9299 60.1655 99.6768 59.2024 99.6768 58.1252C99.6768 57.048 99.9299 56.0786 100.443 55.2168C100.955 54.355 101.658 53.6771 102.556 53.1955C103.455 52.7139 104.468 52.4668 105.594 52.4668C106.48 52.4668 107.284 52.6125 107.999 52.904C108.721 53.1955 109.334 53.62 109.841 54.1776L108.86 55.1598C107.974 54.3044 106.911 53.8798 105.657 53.8798C104.816 53.8798 104.063 54.0636 103.392 54.4247C102.721 54.7859 102.202 55.2928 101.822 55.9455C101.442 56.5918 101.253 57.3205 101.253 58.1315C101.253 58.9299 101.442 59.6586 101.822 60.3049C102.202 60.9512 102.727 61.4645 103.392 61.832C104.063 62.1995 104.809 62.3833 105.638 62.3833C106.626 62.3833 107.493 62.1488 108.227 61.6736V58.0618H108.24Z" fill="white"/>
<path d="M126.125 60.8881H120.252L119.037 63.6571H117.41L122.416 52.5938H123.979L128.998 63.6571H127.34L126.125 60.8881ZM125.574 59.6272L123.188 54.2032L120.802 59.6272H125.574Z" fill="white"/>
<path d="M136.959 52.5869H138.535V62.2753H144.522V63.6503H136.959V52.5869Z" fill="white"/>
<path d="M18.0547 21.9124C17.9408 21.868 17.8332 21.8237 17.7256 21.7793C17.8205 23.9147 18.5483 26.3415 19.9217 29.0091C20.3204 29.7822 20.7697 30.5679 21.2634 31.3599C21.3836 31.3473 21.4975 31.3409 21.6178 31.3283C21.0925 30.4982 20.6178 29.6808 20.2065 28.8697C19.1432 26.7977 18.2002 24.3265 18.0547 21.9124Z" fill="white"/>
<path d="M22.9029 27.4125C23.3522 28.3503 23.9028 29.3198 24.5231 30.3019C24.5737 30.2702 24.6307 30.2385 24.675 30.2005C24.7129 30.1752 24.7446 30.1435 24.7825 30.1181C24.175 29.1487 23.6307 28.1982 23.1877 27.2731C22.6181 26.0882 22.0991 24.7512 21.8017 23.3825C21.6878 23.3318 21.5675 23.2812 21.4473 23.2305C21.7067 24.5358 22.1877 25.9298 22.9029 27.4125Z" fill="white"/>
<path d="M113.544 30.4923C113.341 30.0931 113.208 29.4277 113.145 28.4963C113.088 27.5648 113.056 26.0631 113.056 23.9911V17.4266C113.056 15.2976 112.822 13.6311 112.348 12.4145C111.879 11.2043 111.139 10.3488 110.133 9.84192C109.133 9.34135 107.785 9.08789 106.101 9.08789C104.949 9.08789 103.816 9.28432 102.709 9.67718C102.544 9.72787 102.386 9.79123 102.222 9.8546C102.215 9.8546 102.209 9.86093 102.203 9.86093C101.981 9.94964 101.76 10.0447 101.538 10.1524C100.247 10.7734 99.0698 11.6541 98.0003 12.7947C97.8484 12.9594 97.6965 13.1305 97.5509 13.3016C97.1965 11.7682 96.513 10.6783 95.4941 10.0447C94.4751 9.40471 93.0955 9.08789 91.3487 9.08789C89.6399 9.08789 88.0134 9.44907 86.4755 10.1778C84.944 10.9001 83.5833 12.0026 82.3998 13.479L82.3682 13.4917C82.0581 12.4145 81.5897 11.5718 80.9632 10.9508C80.3176 10.3108 79.4886 9.84192 78.4633 9.53144C77.495 9.23363 76.3558 9.08789 75.0521 9.08789C72.6851 9.08789 70.3814 9.56946 68.141 10.5326C65.8943 11.4894 64.3438 12.8327 63.4894 14.5435L65.7487 15.5637C66.3373 13.8782 67.3436 12.5222 68.7613 11.4831C70.1789 10.4502 71.7548 9.93063 73.5015 9.93063C74.742 9.93063 75.6913 10.2158 76.3558 10.7734C77.0203 11.3373 77.4697 12.123 77.7102 13.1242C77.9317 14.0873 78.0646 15.3229 78.1026 16.831V17.0337C77.3937 17.5597 76.59 17.9905 75.6913 18.3137C74.7926 18.6432 73.4129 19.0867 71.5522 19.6443C69.5397 20.2083 67.9322 20.7342 66.7171 21.2221C65.5083 21.71 64.483 22.388 63.6413 23.2624C62.7995 24.1305 62.3818 25.2331 62.3818 26.5637C62.3818 28.2809 63.0147 29.6432 64.2868 30.6443C65.5526 31.6518 67.1917 32.1524 69.2043 32.1524C70.9763 32.1524 72.5712 31.7976 73.9888 31.0879C75.3875 30.3846 76.7608 29.3264 78.1026 27.9007V31.7089H78.1089H79.6151H82.8428V24.2889V16.8627V14.9427C83.4947 13.6121 84.4313 12.5349 85.6591 11.7048C86.8806 10.8811 88.0704 10.4629 89.2222 10.4629C90.4057 10.4629 91.2854 10.7607 91.8614 11.35C92.4373 11.9456 92.8043 12.763 92.9689 13.8148C93.1334 14.8604 93.2094 16.2734 93.2094 18.0476V31.7089H97.9496V18.4024C97.9496 17.1605 97.9053 16.0516 97.8167 15.0758C98.1395 14.4105 98.5445 13.8022 99.0255 13.2509C99.5065 12.6996 100.063 12.2054 100.696 11.7745C101.329 11.3373 101.956 11.0078 102.57 10.7924C102.722 10.7354 102.873 10.691 103.025 10.6466C103.481 10.5263 103.93 10.4629 104.373 10.4629C105.525 10.4629 106.392 10.7607 106.968 11.35C107.544 11.9456 107.911 12.763 108.076 13.8148C108.234 14.8604 108.316 16.2734 108.316 18.0476V24.5234C108.316 26.5954 108.348 28.0781 108.405 28.9842C108.468 29.884 108.601 30.5303 108.804 30.9105C109.012 31.297 109.354 31.5631 109.822 31.7089H114.563V31.354C114.094 31.1766 113.753 30.8915 113.544 30.4923ZM78.1026 26.57C77.0393 27.964 75.9508 29.0032 74.8306 29.7129C73.704 30.4226 72.4826 30.7774 71.1472 30.7774C69.9131 30.7774 68.9258 30.3845 68.2043 29.6052C67.4828 28.8195 67.1221 27.7803 67.1221 26.475C67.1221 25.0873 67.4069 23.9784 67.9828 23.1484C68.5587 22.3246 69.2739 21.6847 70.1346 21.2411C70.989 20.7976 72.1535 20.3413 73.6344 19.8661C75.6027 19.2451 77.0963 18.6115 78.1026 17.9652V26.57Z" fill="white"/>
<path d="M119.701 0.907465C119.847 1.09756 119.967 1.31933 120.055 1.57279C120.144 1.82624 120.188 2.25712 120.188 2.87809V31.7087H124.929V0.216797H119.479C119.479 0.482926 119.555 0.711037 119.701 0.907465Z" fill="white"/>
<path d="M153.061 14.7015C152.086 12.9146 150.713 11.5333 148.941 10.5575C147.168 9.58165 145.162 9.09375 142.916 9.09375C140.669 9.09375 138.599 9.54363 136.694 10.4497C134.789 11.3495 133.277 12.6738 132.15 14.4227C131.03 16.1652 130.467 18.2372 130.467 20.6323C130.467 22.9705 131.043 25.0108 132.195 26.7533C133.346 28.4958 134.935 29.8328 136.96 30.7643C138.985 31.6957 141.232 32.1646 143.713 32.1646C145.782 32.1646 147.681 31.8414 149.409 31.1888C151.137 30.5361 152.491 29.6047 153.459 28.3944L151.067 27.1525C149.029 29.9595 146.662 31.3662 143.979 31.3662C142.232 31.3662 140.713 30.91 139.416 29.9912C138.118 29.0724 137.112 27.8242 136.403 26.2401C135.694 24.656 135.308 22.8881 135.251 20.9428H154.478C154.51 18.5667 154.035 16.4883 153.061 14.7015ZM135.251 19.9543C135.34 18.1485 135.694 16.482 136.315 14.9423C136.935 13.4025 137.833 12.1796 139.017 11.2608C140.2 10.342 141.618 9.8858 143.27 9.8858C145.428 9.8858 147.118 10.7792 148.346 12.5661C149.573 14.353 150.181 16.8178 150.181 19.9543H135.251Z" fill="white"/>
<path d="M173.926 20.3984C172.775 19.8344 171.281 19.2135 169.452 18.5355C167.325 17.7371 165.75 17.0274 164.731 16.4064C163.712 15.7855 163.161 15.0188 163.073 14.1C162.952 12.8581 163.383 11.8316 164.357 11.0205C165.332 10.2094 166.718 9.79757 168.522 9.79757C171.091 9.79757 173.338 11.1726 175.255 13.9226L177.249 12.4145C176.452 11.35 175.268 10.5326 173.705 9.95598C172.142 9.37936 170.439 9.08789 168.61 9.08789C166.958 9.08789 165.401 9.32234 163.94 9.79757C162.478 10.2728 161.3 10.9698 160.421 11.9076C159.535 12.839 159.092 13.9542 159.092 15.2532C159.092 16.5268 159.49 17.6104 160.288 18.5165C161.085 19.4162 162.054 20.1513 163.193 20.7152C164.326 21.2791 165.813 21.9001 167.648 22.5781C169.832 23.4082 171.439 24.1305 172.477 24.7515C173.509 25.3725 174.059 26.1835 174.116 27.191C174.205 28.4013 173.686 29.4087 172.566 30.2071C171.439 31.0055 170.028 31.4047 168.313 31.4047C166.718 31.4047 165.281 30.9992 163.997 30.1881C162.712 29.3771 161.642 28.2872 160.781 26.9249L158.566 28.4329C159.484 29.6178 160.819 30.5303 162.579 31.1829C164.338 31.8356 166.275 32.1587 168.408 32.1587C171.066 32.1587 173.338 31.6011 175.23 30.4986C177.122 29.3961 178.065 27.812 178.065 25.7716C178.065 24.5297 177.667 23.4652 176.869 22.5781C176.072 21.691 175.078 20.9623 173.926 20.3984Z" fill="white"/>
<path d="M200.684 22.5718C199.887 21.6847 198.912 20.9623 197.76 20.3984C196.609 19.8344 195.115 19.2135 193.286 18.5355C191.159 17.7371 189.584 17.0274 188.565 16.4064C187.546 15.7855 186.995 15.0188 186.906 14.1C186.786 12.8581 187.217 11.8316 188.191 11.0205C189.166 10.2094 190.552 9.79757 192.356 9.79757C194.925 9.79757 197.172 11.1726 199.089 13.9226L201.083 12.4145C200.286 11.35 199.102 10.5326 197.539 9.95598C195.976 9.37936 194.273 9.08789 192.444 9.08789C190.792 9.08789 189.235 9.32234 187.774 9.79757C186.312 10.2728 185.134 10.9698 184.255 11.9076C183.369 12.839 182.926 13.9542 182.926 15.2532C182.926 16.5268 183.324 17.6104 184.122 18.5165C184.919 19.4162 185.888 20.1513 187.027 20.7152C188.16 21.2791 189.647 21.9001 191.482 22.5781C193.666 23.4082 195.273 24.1305 196.311 24.7515C197.343 25.3725 197.893 26.1835 197.95 27.191C198.039 28.4013 197.52 29.4087 196.4 30.2071C195.273 31.0055 193.862 31.4047 192.147 31.4047C190.552 31.4047 189.115 30.9992 187.83 30.1881C186.546 29.3771 185.476 28.2872 184.615 26.9249L182.4 28.4329C183.318 29.6178 184.653 30.5303 186.413 31.1829C188.172 31.8356 190.109 32.1587 192.242 32.1587C194.9 32.1587 197.172 31.6011 199.064 30.4986C200.956 29.3961 201.899 27.812 201.899 25.7716C201.88 24.5234 201.482 23.4589 200.684 22.5718Z" fill="white"/>
<path d="M2.44157 15.3224C4.27059 11.9451 5.56799 8.65646 6.52364 5.47559C6.37807 5.59598 6.23884 5.72271 6.09328 5.84943C5.15662 8.85923 3.90352 11.9577 2.1631 15.1766C-0.665871 20.4042 0.131557 27.6023 4.26426 35.4595C4.55538 35.7953 4.85284 36.1248 5.16295 36.4479C0.549258 28.2423 -0.476008 20.7083 2.44157 15.3224Z" fill="white"/>
<path d="M6.05556 15.3606C8.89086 10.8808 10.492 6.51499 11.416 2.30762C11.2958 2.36464 11.1756 2.42801 11.0553 2.48504C10.125 6.58469 8.54278 10.8301 5.78975 15.1895C2.33423 20.6515 3.72656 28.9395 9.60601 37.9182C10.2959 38.9701 11.0426 40.0219 11.8401 41.0674C12.0426 41.1561 12.2388 41.2448 12.4413 41.3272C11.5173 40.1423 10.6566 38.951 9.86549 37.7471C4.06199 28.8762 2.66966 20.7149 6.05556 15.3606Z" fill="white"/>
<path d="M9.66894 15.3926C13.3017 10.4249 15.0104 5.5522 15.7509 0.850586C15.637 0.875932 15.5294 0.89494 15.4155 0.926622C14.6687 5.54586 12.9726 10.3425 9.40946 15.2089C5.93495 19.9548 6.82731 27.1023 11.9157 35.327C13.4536 37.8108 15.3142 40.282 17.3964 42.6455C17.5546 42.6645 17.7128 42.6835 17.8711 42.7025C15.7066 40.2694 13.7763 37.7221 12.1878 35.1559C7.17539 27.0453 6.2767 20.0309 9.66894 15.3926Z" fill="white"/>
<path d="M30.1738 25.7649C30.1738 24.523 29.7751 23.4585 28.9777 22.5714C28.8828 22.4637 28.7815 22.3686 28.6803 22.2736C28.0664 19.3081 28.9524 17.0587 31.3447 15.5823C34.3825 13.7068 36.5153 11.7361 37.9519 9.71482C37.8886 9.61977 37.819 9.51839 37.7494 9.42334C36.3381 11.4637 34.2243 13.4343 31.1801 15.3162C28.8195 16.7736 27.8449 19.023 28.2942 21.8997C27.6423 21.3168 26.8955 20.8162 26.0538 20.4043C25.75 20.2586 25.4209 20.1065 25.0728 19.9481C25.3323 17.8001 26.5031 16.4251 27.7309 15.557C31.8257 12.6676 34.18 9.63878 35.3381 6.54662C35.2495 6.45791 35.1609 6.38187 35.0723 6.29316C33.9521 9.39166 31.6358 12.4205 27.5537 15.2972C25.9399 16.4377 25.0096 17.9585 24.7691 19.815C23.94 19.4539 22.9843 19.0674 21.9084 18.6618C22.2882 17.5149 22.9843 16.4441 24.1235 15.5253C25.1171 14.7269 25.9842 13.9222 26.769 13.1175C26.9778 13.3773 27.1867 13.6371 27.3829 13.9285L29.3764 12.4205C29.079 12.0276 28.7309 11.6601 28.3258 11.3369C30.2878 8.83406 31.3826 6.28682 31.8447 3.73325C31.7434 3.66989 31.6421 3.60652 31.5409 3.54316C31.0979 6.09673 30.0283 8.64397 28.0727 11.1405C27.4398 10.6716 26.6993 10.2788 25.8323 9.9556C25.6488 9.8859 25.4589 9.84155 25.2754 9.77818C26.8702 7.10422 27.6676 4.41758 27.9335 1.74362C27.8259 1.7056 27.7246 1.66125 27.617 1.62323C27.3639 4.30353 26.5664 6.9965 24.9589 9.6768C23.8704 9.35998 22.7122 9.17622 21.5034 9.11919C22.9654 6.28048 23.6805 3.44178 23.921 0.647421C23.8134 0.628412 23.7058 0.609403 23.5982 0.590393C23.3641 3.40376 22.6363 6.2488 21.149 9.10019C21.0098 9.09385 20.8769 9.08118 20.7439 9.08118C19.5162 9.08118 18.3453 9.21424 17.2251 9.47403C18.7567 6.39454 19.5478 3.34039 19.8769 0.349609C19.7693 0.349609 19.6617 0.355947 19.5541 0.355947C19.2187 3.38475 18.4023 6.47058 16.8138 9.58809C16.5606 9.65145 16.3138 9.71482 16.067 9.79719C14.605 10.2724 13.4279 10.9694 12.5482 11.9072C11.6621 12.8387 11.2191 13.9539 11.2191 15.2528C11.2191 16.0449 11.3773 16.7672 11.6874 17.4199C10.447 20.1952 10.523 23.6676 11.9026 27.6025L10.6875 28.4262C11.2951 29.2119 12.0988 29.8836 13.0861 30.4349C13.4848 31.2586 13.9278 32.1013 14.4215 32.9567C16.3391 36.2517 18.9719 39.6227 21.9971 42.7782C22.13 42.7655 22.2692 42.7592 22.4021 42.7465C19.3263 39.5593 16.6429 36.1376 14.6936 32.792C14.2759 32.076 13.9089 31.3727 13.5608 30.682C13.9152 30.8594 14.2949 31.0241 14.6936 31.1699C15.6429 31.5247 16.6555 31.7718 17.7188 31.9303C19.7313 35.3202 22.535 38.8306 25.8196 42.1192C25.9399 42.0875 26.0538 42.0558 26.1741 42.0242C22.9211 38.7799 20.1364 35.3266 18.1175 31.9746C18.8959 32.076 19.687 32.1394 20.5224 32.1394C20.9465 32.1394 21.3578 32.1203 21.7629 32.0887C23.7122 35.0478 26.2753 38.0639 29.1802 40.9153C29.2815 40.8709 29.3764 40.8266 29.4714 40.7759C26.5981 37.9625 24.0666 34.9781 22.1236 32.057C23.2501 31.9556 24.3007 31.7402 25.269 31.4107C27.0538 34.0213 29.3511 36.7269 32.0155 39.3438C32.1041 39.2868 32.1927 39.2235 32.2813 39.1601C29.6422 36.5622 27.3512 33.8882 25.5791 31.2966C26.1994 31.0685 26.7879 30.796 27.3449 30.4729C27.655 30.2891 27.9271 30.0927 28.1866 29.8899C29.8194 32.3485 31.9712 34.9084 34.4964 37.4366C34.5724 37.3669 34.6546 37.2972 34.7306 37.2212C32.2054 34.6993 30.0599 32.1394 28.4334 29.6872C29.3511 28.8761 29.908 27.8876 30.0979 26.7217C31.5599 29.402 33.8129 32.3168 36.6355 35.2252C36.7178 35.1301 36.8001 35.0351 36.876 34.94C33.9775 31.9619 31.6168 28.9331 30.1612 26.1578C30.1549 26.0374 30.1738 25.9043 30.1738 25.7649ZM26.5601 12.864C25.7817 13.6751 24.9083 14.4798 23.921 15.2718C22.7945 16.1716 22.0287 17.2741 21.6047 18.5414C21.5983 18.5351 21.5857 18.5351 21.5793 18.5351C20.5857 18.1612 19.7124 17.8064 18.9592 17.4706C19.339 16.7672 19.8389 16.1019 20.5098 15.4873C22.1363 13.9982 23.4463 12.4965 24.4906 10.9884C25.2121 11.47 25.9019 12.091 26.5601 12.864ZM24.2185 10.811C23.1869 12.3001 21.9021 13.7891 20.2883 15.2592C19.6111 15.8801 19.0732 16.5771 18.6618 17.3438C17.9403 17.0144 17.3327 16.7039 16.8581 16.4124C16.6809 16.3047 16.5163 16.1843 16.3644 16.0702C16.5353 15.8548 16.7125 15.652 16.8897 15.4683C18.6871 13.599 20.0668 11.7171 21.1173 9.84155C22.2122 9.90491 23.2502 10.2217 24.2185 10.811ZM15.3202 12.7309C15.4847 12.1607 15.8075 11.6601 16.2822 11.2102C16.3518 11.1468 16.4151 11.0835 16.4847 11.0201C17.4593 10.2091 18.8453 9.79719 20.649 9.79719C20.687 9.79719 20.725 9.80353 20.7629 9.80353C19.7377 11.6157 18.396 13.428 16.6619 15.2338C16.472 15.4366 16.2948 15.6394 16.1239 15.8548C15.5733 15.3479 15.2569 14.7586 15.1936 14.0933C15.1493 13.6117 15.1936 13.1555 15.3202 12.7309ZM16.1049 30.1814C14.8202 29.3703 13.7506 28.2805 12.8899 26.9182L12.1621 27.4124C10.871 23.6929 10.7698 20.4107 11.8647 17.7684C12.0165 18.0282 12.2001 18.2753 12.4089 18.5097C12.9659 19.1371 13.6051 19.6756 14.3266 20.1445C13.9342 23.091 14.8202 26.6394 16.9846 30.6566C16.6872 30.5172 16.3897 30.3588 16.1049 30.1814ZM24.7817 30.118C24.7437 30.1434 24.7121 30.1751 24.6741 30.2004C24.6235 30.2384 24.5729 30.2638 24.5222 30.3018C23.7058 30.8467 22.7375 31.1889 21.6236 31.3283C21.5097 31.341 21.3895 31.3536 21.2692 31.36C20.9971 31.3853 20.7123 31.398 20.4212 31.398C19.3643 31.398 18.3707 31.2142 17.453 30.8594C17.4277 30.8087 17.3897 30.758 17.3644 30.7073C14.9278 26.2592 14.3139 22.8819 14.6177 20.3346C14.8392 20.4677 15.067 20.5944 15.3075 20.7148C15.9847 21.0506 16.8011 21.4055 17.7251 21.7857C17.8327 21.83 17.9403 21.8744 18.0542 21.9187C18.5858 22.1342 19.1491 22.3496 19.7567 22.5777C20.3642 22.8058 20.9212 23.0276 21.4401 23.243C21.5604 23.2937 21.6806 23.3444 21.7945 23.3951C22.9717 23.8957 23.902 24.3456 24.5855 24.7511C25.6171 25.3721 26.1677 26.1831 26.2247 27.1906C26.3133 28.3565 25.8323 29.3323 24.7817 30.118Z" fill="white"/>
<path d="M47.8506 31.3535C46.1102 31.3535 44.5849 30.8973 43.2875 29.9785C42.7559 29.6047 42.2939 29.1611 41.8636 28.6796C41.4775 28.2487 41.1231 27.7798 40.813 27.2539C40.6231 26.9244 40.4396 26.5885 40.275 26.2274C39.832 25.2326 39.5282 24.1617 39.3384 23.0211C39.2624 22.5522 39.2055 22.077 39.1738 21.5891C39.1612 21.3673 39.1295 21.1519 39.1232 20.9238H41.5661H49.5404H58.3501C58.3817 18.5603 57.9071 16.482 56.9324 14.6888C55.9578 12.9019 54.5844 11.5206 52.8124 10.5448C51.0403 9.56896 49.0341 9.08105 46.7874 9.08105C44.5406 9.08105 42.4648 9.53094 40.5598 10.437C39.9902 10.7095 39.4586 11.02 38.9587 11.3622C37.7878 12.1732 36.8069 13.1807 36.0221 14.4036C35.9461 14.5177 35.8829 14.6444 35.8132 14.7648C35.4905 14.9549 35.155 15.145 34.807 15.3288C31.7122 16.9952 30.8894 19.948 32.421 23.8639C33.4463 26.4935 35.5791 29.554 38.4523 32.6905C38.5093 32.5955 38.5726 32.5067 38.6232 32.4117C35.8069 29.3259 33.7184 26.3224 32.7121 23.7435C31.2249 19.9417 31.978 17.2043 34.9525 15.6012C35.1487 15.4935 35.3323 15.3921 35.5221 15.2844C34.7374 16.8305 34.3386 18.6047 34.3386 20.607C34.3386 22.9451 34.9146 24.9854 36.0664 26.7279C37.0031 28.1536 38.2435 29.3005 39.7624 30.1813C40.1042 30.3777 40.4522 30.5678 40.8256 30.7389C42.8509 31.6703 45.1039 32.1392 47.5848 32.1392C49.6543 32.1392 51.5529 31.8161 53.2744 31.1634C55.0021 30.5108 56.3565 29.5793 57.3311 28.3691L54.9389 27.1271C52.901 29.9532 50.534 31.3535 47.8506 31.3535ZM39.3321 18.0661C39.3764 17.7809 39.427 17.4958 39.4903 17.217C39.6675 16.4313 39.8953 15.6709 40.1864 14.9486C40.2054 14.8979 40.2371 14.8535 40.2561 14.7965C40.294 14.7078 40.3383 14.6254 40.3763 14.5367C40.7244 13.7637 41.1547 13.073 41.661 12.471C42.0344 12.0275 42.4332 11.6156 42.8888 11.2608C44.0723 10.342 45.49 9.88578 47.1418 9.88578C49.2936 9.88578 50.9897 10.7792 52.2111 12.5661C53.4389 14.3529 54.0528 16.8178 54.0528 19.9543H49.5341H41.5155H39.1295C39.1548 19.308 39.2308 18.6807 39.3321 18.0661Z" fill="white"/>
</svg>
